<svg width="100" height="100" viewBox="0 0 100 100" fill="none" xmlns="http://www.w3.org/2000/svg">
<path d="M50 100C77.6142 100 100 77.6142 100 50C100 22.3858 77.6142 0 50 0C22.3858 0 0 22.3858 0 50C0 77.6142 22.3858 100 50 100Z" fill="#FFCC4D"/>
<path d="M58.3222 75C58.0361 75 57.75 74.9556 57.4639 74.8639C52.575 73.2778 47.4222 73.2778 42.5333 74.8639C41.0778 75.3333 39.5083 74.5389 39.0333 73.0806C38.5583 71.6222 39.3583 70.0555 40.8194 69.5805C46.825 67.6305 53.1722 67.6305 59.1778 69.5805C60.6361 70.0555 61.4361 71.6222 60.9639 73.0806C60.5833 74.25 59.4944 75 58.3222 75Z" fill="#65471B"/>
<path d="M84.2639 33.5222C81.7556 41.1472 74.5833 46.6194 66.225 46.6194C65.825 46.6194 65.4222 46.6056 65.0167 46.5806C60.9139 46.3222 57.1222 44.7611 54.0444 42.1806C54.1444 43.5556 54.2556 44.95 54.4222 46.4583C54.8444 50.3139 56.8778 53.3528 60.3 55.2444C62.5778 56.5056 65.3 57.1556 68.1139 57.3333C72.9306 57.6361 78.0306 56.5556 81.65 54.8083C85.475 52.9611 87.9611 49.6361 88.4722 45.6833C88.9806 41.7528 87.4889 37.5611 84.2639 33.5222Z" fill="white"/>
<path d="M59.3083 21.0639C55.7056 22.5917 53.9 27.4556 53.8167 35.7556L53.925 35.9444C56.4167 39.6083 60.5167 42.1222 65.2806 42.4222C65.5972 42.4417 65.9139 42.4528 66.2278 42.4528C73.5444 42.4528 79.6972 37.0722 80.8194 29.8861C80.5 29.5944 80.2056 29.2972 79.8667 29.0083C69.5472 20.2028 61.9028 19.9611 59.3083 21.0639Z" fill="#65471B"/>
<path d="M66.225 46.6194C74.5833 46.6194 81.7556 41.1472 84.2639 33.5222C83.2806 32.2917 82.1222 31.0778 80.8167 29.8861C79.6944 37.0722 73.5417 42.4528 66.225 42.4528C65.9111 42.4528 65.5944 42.4417 65.2778 42.4222C60.5139 42.1222 56.4139 39.6083 53.9222 35.9444L53.8139 35.7556C53.7944 37.7028 53.8722 39.8472 54.0444 42.1806C57.1222 44.7611 60.9139 46.3222 65.0167 46.5806C65.4222 46.6083 65.825 46.6194 66.225 46.6194Z" fill="#F4900C"/>
<path d="M59.4806 32.8111C61.1788 32.8111 62.5556 31.4344 62.5556 29.7361C62.5556 28.0378 61.1788 26.6611 59.4806 26.6611C57.7823 26.6611 56.4056 28.0378 56.4056 29.7361C56.4056 31.4344 57.7823 32.8111 59.4806 32.8111Z" fill="white"/>
<path d="M33.775 46.6194C25.4167 46.6194 18.2444 41.1472 15.7361 33.5222C12.5111 37.5611 11.0222 41.7528 11.5278 45.6806C12.0417 49.6333 14.525 52.9611 18.35 54.8056C21.9694 56.5528 27.0667 57.6333 31.8861 57.3306C34.7 57.1528 37.4222 56.5056 39.7 55.2417C43.1194 53.35 45.1528 50.3111 45.5778 46.4556C45.7444 44.95 45.8556 43.5611 45.9556 42.1889C42.8917 44.7528 39.0944 46.3194 34.9833 46.5778C34.5778 46.6083 34.175 46.6194 33.775 46.6194Z" fill="white"/>
<path d="M33.775 42.4528C34.0889 42.4528 34.4056 42.4417 34.7222 42.4222C39.4861 42.1222 43.5861 39.6083 46.0778 35.9444L46.1861 35.7556C46.1 27.4556 44.2972 22.5917 40.6944 21.0639C38.1 19.9611 30.4528 20.2028 20.1361 29.0056C19.7972 29.2944 19.5056 29.5917 19.1833 29.8833C20.3056 37.0722 26.4583 42.4528 33.775 42.4528Z" fill="#65471B"/>
<path d="M46.1833 35.7556L46.075 35.9444C43.5833 39.6083 39.4833 42.1222 34.7194 42.4222C34.4028 42.4417 34.0861 42.4528 33.7722 42.4528C26.4556 42.4528 20.3028 37.0722 19.1806 29.8861C17.875 31.0778 16.7167 32.2917 15.7333 33.5222C18.2417 41.1472 25.4139 46.6194 33.7722 46.6194C34.1722 46.6194 34.575 46.6056 34.9806 46.5806C39.0917 46.3222 42.8889 44.7556 45.9528 42.1917C46.125 39.8556 46.2056 37.7083 46.1833 35.7556Z" fill="#F4900C"/>
<path d="M27.1694 32.8056C28.8639 32.7 30.1528 31.2389 30.0444 29.5444C29.9389 27.85 28.4778 26.5611 26.7833 26.6667C25.0889 26.7722 23.8 28.2333 23.9056 29.9278C24.0139 31.6222 25.475 32.9111 27.1694 32.8056Z" fill="white"/>
</svg>
